<svg width="20" height="20" viewBox="0 0 20 20" fill="none" xmlns="http://www.w3.org/2000/svg">
<path d="M10 1.03312e-06C15.5228 1.51594e-06 20 4.47715 20 10C20 15.5228 15.5228 20 10 20C4.47715 20 2.29875e-06 15.5228 2.78158e-06 10C3.2644e-06 4.47715 4.47716 5.50298e-07 10 1.03312e-06Z" fill="#0E4B75"/>
<g clip-path="url(#clip0_1_11)">
<path d="M7.77567 9.99988C7.77567 10.212 7.85993 10.4155 8.0099 10.5655L11.4443 13.9999L12.2243 13.2199L9.0035 9.99988L12.2243 6.77988L11.4443 5.99988L8.0099 9.43428C7.85993 9.5843 7.77567 9.78775 7.77567 9.99988Z" fill="white"/>
</g>
<defs>
<clipPath id="clip0_1_11">
<rect width="8" height="8" fill="white" transform="translate(14 6) rotate(90)"/>
</clipPath>
</defs>
</svg>
